<?xml version="1.0" encoding="utf-8"?>
<?xml-stylesheet type="text/xsl" href="rss1.xsl"?>
<rss version="2.0" xmlns:atom="http://www.w3.org/2005/Atom" xmlns:content="http://purl.org/rss/1.0/modules/content/" xmlns:dc="http://purl.org/dc/elements/1.1/" xmlns:media="http://search.yahoo.com/mrss/">
<channel>
 <title>Getty</title>
 <link>http://www.gettyimg.com/</link>
 <atom:link href="http://www.gettyimg.com/" rel="self" type="application/rss+xml" />

 
                <item>
                <title><![CDATA[【Cinema Center】SERIES - Reserved.Title.S01.1080p.DSNP.WEB-DL.DDP5.1.Atmos.H.264-Samuel]]></title>
                <link><![CDATA[https://sharemania.us/threads/reserved-title-s01-1080p-dsnp-web-dl-ddp5-1-atmos-h-264-samuel.235299/]]></link>
                <description><![CDATA[<article>
<blockquote class="messageText SelectQuoteContainer ugc baseHtml">
Post blank.
<div class="messageTextEndMarker">&nbsp;</div>
</blockquote>
</article>]]></description>
                <author><![CDATA[Samuel]]></author>
                </item>

                
                <item>
                <title><![CDATA[【Requests】[REQ AUD] - Lee Moon Sae FLAC]]></title>
                <link><![CDATA[https://sharemania.us/threads/lee-moon-sae-flac.235297/]]></link>
                <description><![CDATA[<article>
<blockquote class="messageText SelectQuoteContainer ugc baseHtml">
Does anyone have his discography in FLAC? His name in Korean is 이문세.<br>
<br>
Or, at the very least꞉ <br>
(2002.02.08) Best - Old And New<br>
(2004.05.21) Best - Memories<br>
(2018.10.22) BETWEEN US
<div class="messageTextEndMarker">&nbsp;</div>
</blockquote>
</article>]]></description>
                <author><![CDATA[jj00]]></author>
                </item>

                
                <item>
                <title><![CDATA[【Cinema Center】MOVIE - High.School.Musical.3.Senior.Year.2008.1080p.DSNP.WEB-DL.DDP5.1.H.264-Samuel]]></title>
                <link><![CDATA[https://sharemania.us/threads/high-school-musical-3-senior-year-2008-1080p-dsnp-web-dl-ddp5-1-h-264-samuel.235298/]]></link>
                <description><![CDATA[<article>
<blockquote class="messageText SelectQuoteContainer ugc baseHtml">
<div style="text-align: center"><b><span style="font-size: 26px">High School Musical 3: Senior Year</span></b><br>
<img src="https://i.imgur.com/4mZYPcC.png" class="bbCodeImage LbImage" alt="[​IMG]" data-url="https://i.imgur.com/4mZYPcC.png" style=""><br>
<b><a href="https://i.imgur.com/RuBhbQP.png" target="_blank" class="externalLink" rel="nofollow">Alternate Artwork 1</a></b> | <b><a href="https://i.imgur.com/SVcIS46.jpg" target="_blank" class="externalLink" rel="nofollow">Alternate Artwork 2</a></b> | <b><a href="https://i.imgur.com/06VHsCX.png" target="_blank" class="externalLink" rel="nofollow">Alternate Artwork 3</a></b> | <b><a href="https://i.imgur.com/ZMJHUrh.png" target="_blank" class="externalLink" rel="nofollow">Alternate Artwork 4</a></b> | <b><a href="https://i.imgur.com/5EAw6dd.png" target="_blank" class="externalLink" rel="nofollow">Alternate Artwork 5</a></b> | <b><a href="https://i.imgur.com/s137PRL.jpg" target="_blank" class="externalLink" rel="nofollow">Alternate Artwork 6</a></b> | <b><a href="https://i.imgur.com/RJM9KQW.jpg" target="_blank" class="externalLink" rel="nofollow">Alternate Artwork 7</a></b> | <b><a href="https://i.imgur.com/QlENSi6.jpg" target="_blank" class="externalLink" rel="nofollow">Alternate Artwork 8</a></b> | <b><a href="https://i.imgur.com/11dnslc.jpg" target="_blank" class="externalLink" rel="nofollow">Alternate Artwork 9</a></b> | <b><a href="https://i.imgur.com/KvZONMN.jpg" target="_blank" class="externalLink" rel="nofollow">Alternate Artwork 10</a></b> | <b><a href="https://i.imgur.com/Kcf4Rvj.jpg" target="_blank" class="externalLink" rel="nofollow">Alternate Artwork 11</a></b> | <b><a href="https://i.imgur.com/QGQteBe.png" target="_blank" class="externalLink" rel="nofollow">Poster 1</a></b> | <b><a href="https://i.imgur.com/T8RFjRy.png" target="_blank" class="externalLink" rel="nofollow">Poster 2</a></b> | <b><a href="https://i.imgur.com/gj1k3Wj.jpg" target="_blank" class="externalLink" rel="nofollow">Poster 3</a></b> | <b><a href="https://i.imgur.com/lXuKz0H.jpg" target="_blank" class="externalLink" rel="nofollow">Poster 4</a></b> | <b><a href="https://i.imgur.com/XuyiTuY.jpg" target="_blank" class="externalLink" rel="nofollow">Poster 5</a></b> | <b><a href="https://i.imgur.com/7ZTELcE.jpg" target="_blank" class="externalLink" rel="nofollow">Thumbnail 1</a></b> | <b><a href="https://i.imgur.com/OZwocLM.jpg" target="_blank" class="externalLink" rel="nofollow">Thumbnail 2</a></b> | <b><a href="https://i.imgur.com/KEMkAXE.jpg" target="_blank" class="externalLink" rel="nofollow">Key Art</a></b><br>
<br>
<img src="https://i.imgur.com/WEsl0Js.png" class="bbCodeImage LbImage" alt="[​IMG]" data-url="https://i.imgur.com/WEsl0Js.png" style=""> <img src="https://i.imgur.com/R7cyABL.png" class="bbCodeImage LbImage" alt="[​IMG]" data-url="https://i.imgur.com/R7cyABL.png" style=""> <img src="https://i.imgur.com/aNwcs8B.png" class="bbCodeImage LbImage" alt="[​IMG]" data-url="https://i.imgur.com/aNwcs8B.png" style=""><br>
2008 • 2h 1m<br>
Romance, Coming of Age, Musical<br>
<br>
<div class="bbCodeBlock bbCodeQuote">
<aside>
<blockquote class="quoteContainer"><div class="quote"><b><span style="font-size: 15px"><span style="font-family: 'Arial'">Description</span></span></b><br>
With graduation looming, the seniors of East High need to do something they'll remember forever. Together with the rest of the Wildcats, they stage a spring musical reflecting their hopes and fears about the future...and their unforgettable experiences growing up together. But with graduation approaching and college plans in question, what will become of their dreams, romances and friendships?</div><div class="quoteExpand">Click to expand...</div></blockquote>
</aside>
</div>
<div class="bbCodeBlock bbCodeQuote">
<aside>
<blockquote class="quoteContainer"><div class="quote"><b><span style="font-size: 15px"><span style="font-family: 'Arial'">Trailers</span></span></b><br>
<span data-s9e-mediaembed="googledrive" style="display:inline-block;width:100%;max-width:640px"><span style="display:block;overflow:hidden;position:relative;padding-bottom:75%"><iframe allowfullscreen="" loading="lazy" scrolling="no" src="//drive.google.com/file/d/1RWI4l8zgh0E9lBrfHqOibH8Tc4TEjGVH/preview" style="border:0;height:100%;left:0;position:absolute;width:100%"></iframe></span></span><br>
<b>High School Musical 3: Senior Year Trailer</b></div><div class="quoteExpand quoteCut">Click to expand...</div></blockquote>
</aside>
</div>
<div class="bbCodeBlock bbCodeQuote">
<aside>
<blockquote class="quoteContainer"><div class="quote"><b><span style="font-size: 15px"><span style="font-family: 'Arial'">More Information</span></span></b><br>
<b>Long Description:</b><br>
It's almost graduation day for high school seniors Troy, Gabriella, Sharpay, Chad, Ryan and Taylor...and the thought of heading off in separate directions has these Wildcats thinking they need to do something memorable. Partnering with the rest of the Wildcats, they stage a spring musical reflecting their hopes and fears about the future—and their unforgettable experiences growing up together. But with graduation approaching and college plans in question, what will become of the dreams, romances and friendships of East High's senior Wildcats?<br>
<b>Duration:</b> 2h 1m<br>
<b>Release Date:</b> 2008<br>
<b>Genre:</b> Romance, Coming of Age, Musical<br>
<b>Rating:</b> <img src="https://i.imgur.com/WEsl0Js.png" class="bbCodeImage LbImage" alt="[​IMG]" data-url="https://i.imgur.com/WEsl0Js.png" style=""><br>
<b>Director:</b> Kenny Ortega<br>
<b>Starring:</b> Zac Efron, Vanessa Hudgens, Ashley Tisdale, Lucas Grabeel, Corbin Bleu, Monique Coleman</div><div class="quoteExpand quoteCut">Click to expand...</div></blockquote>
</aside>
</div>
<div class="bbCodeBlock bbCodeQuote">
<aside>
<blockquote class="quoteContainer"><div class="quote"><b><span style="font-size: 15px">Source</span></b><br>
<img src="https://i.imgur.com/zIQLtMk.png" class="bbCodeImage LbImage" alt="[​IMG]" data-url="https://i.imgur.com/zIQLtMk.png" style=""></div><div class="quoteExpand">Click to expand...</div></blockquote>
</aside>
</div>
<div class="bbCodeBlock bbCodeQuote">
<aside>
<blockquote class="quoteContainer"><div class="quote"><b><span style="font-size: 15px">Release Name</span></b><br>
High.School.Musical.3.Senior.Year.2008.1080p.DSNP.WEB-DL.DDP5.1.H.264-Samuel</div><div class="quoteExpand">Click to expand...</div></blockquote>
</aside>
</div>
<div class="ToggleTriggerAnchor bbCodeSpoilerContainer">
<button type="button" class="button bbCodeSpoilerButton ToggleTrigger Tooltip JsOnly" data-target="> .SpoilerTarget"><span>Spoiler: <span class="SpoilerTitle">Media Information</span></span></button>
<div class="SpoilerTarget bbCodeSpoilerText">General<br>
Complete name : High.School.Musical.3.Senior.Year.2008.1080p.DSNP.WEB-DL.DDP5.1.H.264-Samuel.mkv<br>
Format : Matroska<br>
Format version : Version 4<br>
File size : 11.5 GiB<br>
Duration : 1 h 56 min<br>
Overall bit rate mode : Variable<br>
Overall bit rate : 14.1 Mb/s<br>
Frame rate : 23.976 FPS<br>
Encoded date : 2024-01-05 11:09:27 UTC<br>
Writing application : mkvmerge v72.0.0 ('Minuano (Six-eight)') 64-bit<br>
Writing library : libebml v1.4.4 + libmatroska v1.7.1<br>
<br>
Video<br>
ID : 1<br>
Format : AVC<br>
Format/Info : Advanced Video Codec<br>
Format profile : High@L4<br>
Format settings : CABAC / 4 Ref Frames<br>
Format settings, CABAC : Yes<br>
Format settings, Reference frames : 4 frames<br>
Codec ID : V_MPEG4/ISO/AVC<br>
Duration : 1 h 56 min<br>
Bit rate mode : Variable<br>
Bit rate : 8 464 kb/s<br>
Maximum bit rate : 12.7 Mb/s<br>
Width : 1 920 pixels<br>
Height : 1 080 pixels<br>
Display aspect ratio : 16:9<br>
Frame rate mode : Constant<br>
Frame rate : 23.976 (24000/1001) FPS<br>
Color space : YUV<br>
Chroma subsampling : 4:2:0<br>
Bit depth : 8 bits<br>
Scan type : Progressive<br>
Bits/(Pixel*Frame) : 0.170<br>
Time code of first frame : 00:00:00;00<br>
Stream size : 6.90 GiB (60%)<br>
Default : Yes<br>
Forced : No<br>
Color range : Limited<br>
Color primaries : BT.709<br>
Transfer characteristics : BT.709<br>
Matrix coefficients : BT.709<br>
<br>
Audio #1<br>
ID : 2<br>
Format : E-AC-3<br>
Format/Info : Enhanced AC-3<br>
Commercial name : Dolby Digital Plus<br>
Codec ID : A_EAC3<br>
Duration : 1 h 56 min<br>
Bit rate mode : Constant<br>
Bit rate : 256 kb/s<br>
Channel(s) : 6 channels<br>
Channel layout : L R C LFE Ls Rs<br>
Sampling rate : 48.0 kHz<br>
Frame rate : 31.250 FPS (1536 SPF)<br>
Compression mode : Lossy<br>
Stream size : 214 MiB (2%)<br>
Language : English<br>
Service kind : Complete Main<br>
Default : Yes<br>
Forced : No<br>
<br>
Audio #2<br>
ID : 3<br>
Format : AAC LC<br>
Format/Info : Advanced Audio Codec Low Complexity<br>
Codec ID : A_AAC-2<br>
Duration : 1 h 56 min<br>
Bit rate : 125 kb/s<br>
Channel(s) : 2 channels<br>
Channel layout : L R<br>
Sampling rate : 48.0 kHz<br>
Frame rate : 46.875 FPS (1024 SPF)<br>
Compression mode : Lossy<br>
Stream size : 105 MiB (1%)<br>
Title : Audio Description<br>
Language : English<br>
Default : No<br>
Forced : No<br>
<br>
Audio #3<br>
ID : 4<br>
Format : E-AC-3<br>
Format/Info : Enhanced AC-3<br>
Commercial name : Dolby Digital Plus<br>
Codec ID : A_EAC3<br>
Duration : 1 h 56 min<br>
Bit rate mode : Constant<br>
Bit rate : 256 kb/s<br>
Channel(s) : 6 channels<br>
Channel layout : L R C LFE Ls Rs<br>
Sampling rate : 48.0 kHz<br>
Frame rate : 31.250 FPS (1536 SPF)<br>
Compression mode : Lossy<br>
Stream size : 214 MiB (2%)<br>
Title : Taiwanese Mandarin<br>
Language : Chinese<br>
Service kind : Complete Main<br>
Default : No<br>
Forced : No<br>
<br>
Audio #4<br>
ID : 5<br>
Format : E-AC-3<br>
Format/Info : Enhanced AC-3<br>
Commercial name : Dolby Digital Plus<br>
Codec ID : A_EAC3<br>
Duration : 1 h 56 min<br>
Bit rate mode : Constant<br>
Bit rate : 256 kb/s<br>
Channel(s) : 6 channels<br>
Channel layout : L R C LFE Ls Rs<br>
Sampling rate : 48.0 kHz<br>
Frame rate : 31.250 FPS (1536 SPF)<br>
Compression mode : Lossy<br>
Stream size : 214 MiB (2%)<br>
Language : Czech<br>
Service kind : Complete Main<br>
Default : No<br>
Forced : No<br>
<br>
Audio #5<br>
ID : 6<br>
Format : E-AC-3<br>
Format/Info : Enhanced AC-3<br>
Commercial name : Dolby Digital Plus<br>
Codec ID : A_EAC3<br>
Duration : 1 h 56 min<br>
Bit rate mode : Constant<br>
Bit rate : 256 kb/s<br>
Channel(s) : 6 channels<br>
Channel layout : L R C LFE Ls Rs<br>
Sampling rate : 48.0 kHz<br>
Frame rate : 31.250 FPS (1536 SPF)<br>
Compression mode : Lossy<br>
Stream size : 214 MiB (2%)<br>
Language : Danish<br>
Service kind : Complete Main<br>
Default : No<br>
Forced : No<br>
<br>
Audio #6<br>
ID : 7<br>
Format : E-AC-3<br>
Format/Info : Enhanced AC-3<br>
Commercial name : Dolby Digital Plus<br>
Codec ID : A_EAC3<br>
Duration : 1 h 56 min<br>
Bit rate mode : Constant<br>
Bit rate : 256 kb/s<br>
Channel(s) : 6 channels<br>
Channel layout : L R C LFE Ls Rs<br>
Sampling rate : 48.0 kHz<br>
Frame rate : 31.250 FPS (1536 SPF)<br>
Compression mode : Lossy<br>
Stream size : 214 MiB (2%)<br>
Language : German<br>
Service kind : Complete Main<br>
Default : No<br>
Forced : No<br>
<br>
Audio #7<br>
ID : 8<br>
Format : E-AC-3<br>
Format/Info : Enhanced AC-3<br>
Commercial name : Dolby Digital Plus<br>
Codec ID : A_EAC3<br>
Duration : 1 h 56 min<br>
Bit rate mode : Constant<br>
Bit rate : 256 kb/s<br>
Channel(s) : 6 channels<br>
Channel layout : L R C LFE Ls Rs<br>
Sampling rate : 48.0 kHz<br>
Frame rate : 31.250 FPS (1536 SPF)<br>
Compression mode : Lossy<br>
Stream size : 214 MiB (2%)<br>
Title : Latin American<br>
Language : Spanish<br>
Service kind : Complete Main<br>
Default : No<br>
Forced : No<br>
<br>
Audio #8<br>
ID : 9<br>
Format : E-AC-3<br>
Format/Info : Enhanced AC-3<br>
Commercial name : Dolby Digital Plus<br>
Codec ID : A_EAC3<br>
Duration : 1 h 56 min<br>
Bit rate mode : Constant<br>
Bit rate : 256 kb/s<br>
Channel(s) : 6 channels<br>
Channel layout : L R C LFE Ls Rs<br>
Sampling rate : 48.0 kHz<br>
Frame rate : 31.250 FPS (1536 SPF)<br>
Compression mode : Lossy<br>
Stream size : 214 MiB (2%)<br>
Title : European<br>
Language : Spanish<br>
Service kind : Complete Main<br>
Default : No<br>
Forced : No<br>
<br>
Audio #9<br>
ID : 10<br>
Format : E-AC-3<br>
Format/Info : Enhanced AC-3<br>
Commercial name : Dolby Digital Plus<br>
Codec ID : A_EAC3<br>
Duration : 1 h 56 min<br>
Bit rate mode : Constant<br>
Bit rate : 256 kb/s<br>
Channel(s) : 6 channels<br>
Channel layout : L R C LFE Ls Rs<br>
Sampling rate : 48.0 kHz<br>
Frame rate : 31.250 FPS (1536 SPF)<br>
Compression mode : Lossy<br>
Stream size : 214 MiB (2%)<br>
Language : Finnish<br>
Service kind : Complete Main<br>
Default : No<br>
Forced : No<br>
<br>
Audio #10<br>
ID : 11<br>
Format : E-AC-3<br>
Format/Info : Enhanced AC-3<br>
Commercial name : Dolby Digital Plus<br>
Codec ID : A_EAC3<br>
Duration : 1 h 56 min<br>
Bit rate mode : Constant<br>
Bit rate : 256 kb/s<br>
Channel(s) : 6 channels<br>
Channel layout : L R C LFE Ls Rs<br>
Sampling rate : 48.0 kHz<br>
Frame rate : 31.250 FPS (1536 SPF)<br>
Compression mode : Lossy<br>
Stream size : 214 MiB (2%)<br>
Title : Canadian<br>
Language : French<br>
Service kind : Complete Main<br>
Default : No<br>
Forced : No<br>
<br>
Audio #11<br>
ID : 12<br>
Format : E-AC-3<br>
Format/Info : Enhanced AC-3<br>
Commercial name : Dolby Digital Plus<br>
Codec ID : A_EAC3<br>
Duration : 1 h 56 min<br>
Bit rate mode : Constant<br>
Bit rate : 256 kb/s<br>
Channel(s) : 6 channels<br>
Channel layout : L R C LFE Ls Rs<br>
Sampling rate : 48.0 kHz<br>
Frame rate : 31.250 FPS (1536 SPF)<br>
Compression mode : Lossy<br>
Stream size : 214 MiB (2%)<br>
Language : French<br>
Service kind : Complete Main<br>
Default : No<br>
Forced : No<br>
<br>
Audio #12<br>
ID : 13<br>
Format : E-AC-3<br>
Format/Info : Enhanced AC-3<br>
Commercial name : Dolby Digital Plus<br>
Codec ID : A_EAC3<br>
Duration : 1 h 56 min<br>
Bit rate mode : Constant<br>
Bit rate : 256 kb/s<br>
Channel(s) : 6 channels<br>
Channel layout : L R C LFE Ls Rs<br>
Sampling rate : 48.0 kHz<br>
Frame rate : 31.250 FPS (1536 SPF)<br>
Compression mode : Lossy<br>
Stream size : 214 MiB (2%)<br>
Language : Hungarian<br>
Service kind : Complete Main<br>
Default : No<br>
Forced : No<br>
<br>
Audio #13<br>
ID : 14<br>
Format : E-AC-3<br>
Format/Info : Enhanced AC-3<br>
Commercial name : Dolby Digital Plus<br>
Codec ID : A_EAC3<br>
Duration : 1 h 56 min<br>
Bit rate mode : Constant<br>
Bit rate : 256 kb/s<br>
Channel(s) : 6 channels<br>
Channel layout : L R C LFE Ls Rs<br>
Sampling rate : 48.0 kHz<br>
Frame rate : 31.250 FPS (1536 SPF)<br>
Compression mode : Lossy<br>
Stream size : 214 MiB (2%)<br>
Language : Italian<br>
Service kind : Complete Main<br>
Default : No<br>
Forced : No<br>
<br>
Audio #14<br>
ID : 15<br>
Format : E-AC-3<br>
Format/Info : Enhanced AC-3<br>
Commercial name : Dolby Digital Plus<br>
Codec ID : A_EAC3<br>
Duration : 1 h 56 min<br>
Bit rate mode : Constant<br>
Bit rate : 256 kb/s<br>
Channel(s) : 6 channels<br>
Channel layout : L R C LFE Ls Rs<br>
Sampling rate : 48.0 kHz<br>
Frame rate : 31.250 FPS (1536 SPF)<br>
Compression mode : Lossy<br>
Stream size : 214 MiB (2%)<br>
Language : Japanese<br>
Service kind : Complete Main<br>
Default : No<br>
Forced : No<br>
<br>
Audio #15<br>
ID : 16<br>
Format : AAC LC<br>
Format/Info : Advanced Audio Codec Low Complexity<br>
Codec ID : A_AAC-2<br>
Duration : 1 h 56 min<br>
Bit rate : 125 kb/s<br>
Channel(s) : 2 channels<br>
Channel layout : L R<br>
Sampling rate : 48.0 kHz<br>
Frame rate : 46.875 FPS (1024 SPF)<br>
Compression mode : Lossy<br>
Stream size : 105 MiB (1%)<br>
Language : Korean<br>
Default : No<br>
Forced : No<br>
<br>
Audio #16<br>
ID : 17<br>
Format : E-AC-3<br>
Format/Info : Enhanced AC-3<br>
Commercial name : Dolby Digital Plus<br>
Codec ID : A_EAC3<br>
Duration : 1 h 56 min<br>
Bit rate mode : Constant<br>
Bit rate : 256 kb/s<br>
Channel(s) : 6 channels<br>
Channel layout : L R C LFE Ls Rs<br>
Sampling rate : 48.0 kHz<br>
Frame rate : 31.250 FPS (1536 SPF)<br>
Compression mode : Lossy<br>
Stream size : 214 MiB (2%)<br>
Language : Dutch<br>
Service kind : Complete Main<br>
Default : No<br>
Forced : No<br>
<br>
Audio #17<br>
ID : 18<br>
Format : E-AC-3<br>
Format/Info : Enhanced AC-3<br>
Commercial name : Dolby Digital Plus<br>
Codec ID : A_EAC3<br>
Duration : 1 h 56 min<br>
Bit rate mode : Constant<br>
Bit rate : 256 kb/s<br>
Channel(s) : 6 channels<br>
Channel layout : L R C LFE Ls Rs<br>
Sampling rate : 48.0 kHz<br>
Frame rate : 31.250 FPS (1536 SPF)<br>
Compression mode : Lossy<br>
Stream size : 214 MiB (2%)<br>
Language : Norwegian<br>
Service kind : Complete Main<br>
Default : No<br>
Forced : No<br>
<br>
Audio #18<br>
ID : 19<br>
Format : E-AC-3<br>
Format/Info : Enhanced AC-3<br>
Commercial name : Dolby Digital Plus<br>
Codec ID : A_EAC3<br>
Duration : 1 h 56 min<br>
Bit rate mode : Constant<br>
Bit rate : 256 kb/s<br>
Channel(s) : 6 channels<br>
Channel layout : L R C LFE Ls Rs<br>
Sampling rate : 48.0 kHz<br>
Frame rate : 31.250 FPS (1536 SPF)<br>
Compression mode : Lossy<br>
Stream size : 214 MiB (2%)<br>
Language : Polish<br>
Service kind : Complete Main<br>
Default : No<br>
Forced : No<br>
<br>
Audio #19<br>
ID : 20<br>
Format : E-AC-3<br>
Format/Info : Enhanced AC-3<br>
Commercial name : Dolby Digital Plus<br>
Codec ID : A_EAC3<br>
Duration : 1 h 56 min<br>
Bit rate mode : Constant<br>
Bit rate : 256 kb/s<br>
Channel(s) : 6 channels<br>
Channel layout : L R C LFE Ls Rs<br>
Sampling rate : 48.0 kHz<br>
Frame rate : 31.250 FPS (1536 SPF)<br>
Compression mode : Lossy<br>
Stream size : 214 MiB (2%)<br>
Title : Brazilian<br>
Language : Portuguese<br>
Service kind : Complete Main<br>
Default : No<br>
Forced : No<br>
<br>
Audio #20<br>
ID : 21<br>
Format : E-AC-3<br>
Format/Info : Enhanced AC-3<br>
Commercial name : Dolby Digital Plus<br>
Codec ID : A_EAC3<br>
Duration : 1 h 56 min<br>
Bit rate mode : Constant<br>
Bit rate : 256 kb/s<br>
Channel(s) : 6 channels<br>
Channel layout : L R C LFE Ls Rs<br>
Sampling rate : 48.0 kHz<br>
Frame rate : 31.250 FPS (1536 SPF)<br>
Compression mode : Lossy<br>
Stream size : 214 MiB (2%)<br>
Language : Slovak<br>
Service kind : Complete Main<br>
Default : No<br>
Forced : No<br>
<br>
Audio #21<br>
ID : 22<br>
Format : E-AC-3<br>
Format/Info : Enhanced AC-3<br>
Commercial name : Dolby Digital Plus<br>
Codec ID : A_EAC3<br>
Duration : 1 h 56 min<br>
Bit rate mode : Constant<br>
Bit rate : 256 kb/s<br>
Channel(s) : 6 channels<br>
Channel layout : L R C LFE Ls Rs<br>
Sampling rate : 48.0 kHz<br>
Frame rate : 31.250 FPS (1536 SPF)<br>
Compression mode : Lossy<br>
Stream size : 214 MiB (2%)<br>
Language : Swedish<br>
Service kind : Complete Main<br>
Default : No<br>
Forced : No<br>
<br>
Audio #22<br>
ID : 23<br>
Format : E-AC-3<br>
Format/Info : Enhanced AC-3<br>
Commercial name : Dolby Digital Plus<br>
Codec ID : A_EAC3<br>
Duration : 1 h 56 min<br>
Bit rate mode : Constant<br>
Bit rate : 256 kb/s<br>
Channel(s) : 6 channels<br>
Channel layout : L R C LFE Ls Rs<br>
Sampling rate : 48.0 kHz<br>
Frame rate : 31.250 FPS (1536 SPF)<br>
Compression mode : Lossy<br>
Stream size : 214 MiB (2%)<br>
Language : Turkish<br>
Service kind : Complete Main<br>
Default : No<br>
Forced : No<br>
<br>
Audio #23<br>
ID : 24<br>
Format : E-AC-3<br>
Format/Info : Enhanced AC-3<br>
Commercial name : Dolby Digital Plus<br>
Codec ID : A_EAC3<br>
Duration : 1 h 56 min<br>
Bit rate mode : Constant<br>
Bit rate : 256 kb/s<br>
Channel(s) : 6 channels<br>
Channel layout : L R C LFE Ls Rs<br>
Sampling rate : 48.0 kHz<br>
Frame rate : 31.250 FPS (1536 SPF)<br>
Compression mode : Lossy<br>
Stream size : 214 MiB (2%)<br>
Title : Cantonese<br>
Language : Chinese<br>
Service kind : Complete Main<br>
Default : No<br>
Forced : No<br>
<br>
Text #1<br>
ID : 25<br>
Format : UTF-8<br>
Codec ID : S_TEXT/UTF8<br>
Codec ID/Info : UTF-8 Plain Text<br>
Duration : 1 h 55 min<br>
Bit rate : 74 b/s<br>
Frame rate : 0.248 FPS<br>
Count of elements : 1724<br>
Stream size : 63.6 KiB (0%)<br>
Title : SDH<br>
Language : English<br>
Default : No<br>
Forced : No<br>
<br>
Text #2<br>
ID : 26<br>
Format : UTF-8<br>
Codec ID : S_TEXT/UTF8<br>
Codec ID/Info : UTF-8 Plain Text<br>
Duration : 1 h 49 min<br>
Bit rate : 0 b/s<br>
Frame rate : 0.003 FPS<br>
Count of elements : 19<br>
Stream size : 509 Bytes (0%)<br>
Title : Forced<br>
Language : Czech<br>
Default : No<br>
Forced : Yes<br>
<br>
Text #3<br>
ID : 27<br>
Format : UTF-8<br>
Codec ID : S_TEXT/UTF8<br>
Codec ID/Info : UTF-8 Plain Text<br>
Duration : 1 h 52 min<br>
Bit rate : 72 b/s<br>
Frame rate : 0.232 FPS<br>
Count of elements : 1574<br>
Stream size : 60.1 KiB (0%)<br>
Language : Czech<br>
Default : No<br>
Forced : No<br>
<br>
Text #4<br>
ID : 28<br>
Format : UTF-8<br>
Codec ID : S_TEXT/UTF8<br>
Codec ID/Info : UTF-8 Plain Text<br>
Duration : 1 h 44 min<br>
Bit rate : 0 b/s<br>
Frame rate : 0.003 FPS<br>
Count of elements : 19<br>
Stream size : 506 Bytes (0%)<br>
Title : Forced<br>
Language : Danish<br>
Default : No<br>
Forced : Yes<br>
<br>
Text #5<br>
ID : 29<br>
Format : UTF-8<br>
Codec ID : S_TEXT/UTF8<br>
Codec ID/Info : UTF-8 Plain Text<br>
Duration : 1 h 52 min<br>
Bit rate : 67 b/s<br>
Frame rate : 0.233 FPS<br>
Count of elements : 1574<br>
Stream size : 55.7 KiB (0%)<br>
Language : Danish<br>
Default : No<br>
Forced : No<br>
<br>
Text #6<br>
ID : 30<br>
Format : UTF-8<br>
Codec ID : S_TEXT/UTF8<br>
Codec ID/Info : UTF-8 Plain Text<br>
Duration : 1 h 16 min<br>
Bit rate : 0 b/s<br>
Frame rate : 0.002 FPS<br>
Count of elements : 10<br>
Stream size : 212 Bytes (0%)<br>
Title : Forced<br>
Language : German<br>
Default : No<br>
Forced : Yes<br>
<br>
Text #7<br>
ID : 31<br>
Format : UTF-8<br>
Codec ID : S_TEXT/UTF8<br>
Codec ID/Info : UTF-8 Plain Text<br>
Duration : 1 h 52 min<br>
Bit rate : 54 b/s<br>
Frame rate : 0.202 FPS<br>
Count of elements : 1366<br>
Stream size : 45.0 KiB (0%)<br>
Language : German<br>
Default : No<br>
Forced : No<br>
<br>
Text #8<br>
ID : 32<br>
Format : UTF-8<br>
Codec ID : S_TEXT/UTF8<br>
Codec ID/Info : UTF-8 Plain Text<br>
Duration : 1 h 52 min<br>
Bit rate : 114 b/s<br>
Frame rate : 0.233 FPS<br>
Count of elements : 1580<br>
Stream size : 94.9 KiB (0%)<br>
Language : Greek<br>
Default : No<br>
Forced : No<br>
<br>
Text #9<br>
ID : 33<br>
Format : UTF-8<br>
Codec ID : S_TEXT/UTF8<br>
Codec ID/Info : UTF-8 Plain Text<br>
Duration : 1 h 29 min<br>
Bit rate : 0 b/s<br>
Frame rate : 0.002 FPS<br>
Count of elements : 13<br>
Stream size : 321 Bytes (0%)<br>
Title : Latin American (Forced)<br>
Language : Spanish<br>
Default : No<br>
Forced : Yes<br>
<br>
Text #10<br>
ID : 34<br>
Format : UTF-8<br>
Codec ID : S_TEXT/UTF8<br>
Codec ID/Info : UTF-8 Plain Text<br>
Duration : 1 h 52 min<br>
Bit rate : 69 b/s<br>
Frame rate : 0.229 FPS<br>
Count of elements : 1551<br>
Stream size : 57.7 KiB (0%)<br>
Title : Latin American<br>
Language : Spanish<br>
Default : No<br>
Forced : No<br>
<br>
Text #11<br>
ID : 35<br>
Format : UTF-8<br>
Codec ID : S_TEXT/UTF8<br>
Codec ID/Info : UTF-8 Plain Text<br>
Duration : 22 min 40 s<br>
Bit rate : 0 b/s<br>
Frame rate : 0.002 FPS<br>
Count of elements : 3<br>
Stream size : 93.0 Bytes (0%)<br>
Title : European (Forced)<br>
Language : Spanish<br>
Default : No<br>
Forced : Yes<br>
<br>
Text #12<br>
ID : 36<br>
Format : UTF-8<br>
Codec ID : S_TEXT/UTF8<br>
Codec ID/Info : UTF-8 Plain Text<br>
Duration : 1 h 52 min<br>
Bit rate : 59 b/s<br>
Frame rate : 0.225 FPS<br>
Count of elements : 1526<br>
Stream size : 49.0 KiB (0%)<br>
Title : European<br>
Language : Spanish<br>
Default : No<br>
Forced : No<br>
<br>
Text #13<br>
ID : 37<br>
Format : UTF-8<br>
Codec ID : S_TEXT/UTF8<br>
Codec ID/Info : UTF-8 Plain Text<br>
Duration : 1 h 28 min<br>
Bit rate : 0 b/s<br>
Frame rate : 0.002 FPS<br>
Count of elements : 12<br>
Stream size : 342 Bytes (0%)<br>
Title : Forced<br>
Language : Finnish<br>
Default : No<br>
Forced : Yes<br>
<br>
Text #14<br>
ID : 38<br>
Format : UTF-8<br>
Codec ID : S_TEXT/UTF8<br>
Codec ID/Info : UTF-8 Plain Text<br>
Duration : 1 h 52 min<br>
Bit rate : 54 b/s<br>
Frame rate : 0.227 FPS<br>
Count of elements : 1534<br>
Stream size : 45.3 KiB (0%)<br>
Language : Finnish<br>
Default : No<br>
Forced : No<br>
<br>
Text #15<br>
ID : 39<br>
Format : UTF-8<br>
Codec ID : S_TEXT/UTF8<br>
Codec ID/Info : UTF-8 Plain Text<br>
Duration : 1 h 29 min<br>
Bit rate : 0 b/s<br>
Frame rate : 0.003 FPS<br>
Count of elements : 16<br>
Stream size : 467 Bytes (0%)<br>
Title : Canadian (Forced)<br>
Language : French<br>
Default : No<br>
Forced : Yes<br>
<br>
Text #16<br>
ID : 40<br>
Format : UTF-8<br>
Codec ID : S_TEXT/UTF8<br>
Codec ID/Info : UTF-8 Plain Text<br>
Duration : 1 h 53 min<br>
Bit rate : 57 b/s<br>
Frame rate : 0.195 FPS<br>
Count of elements : 1333<br>
Stream size : 48.0 KiB (0%)<br>
Title : Canadian (SDH)<br>
Language : French<br>
Default : No<br>
Forced : No<br>
<br>
Text #17<br>
ID : 41<br>
Format : UTF-8<br>
Codec ID : S_TEXT/UTF8<br>
Codec ID/Info : UTF-8 Plain Text<br>
Duration : 1 h 29 min<br>
Bit rate : 0 b/s<br>
Frame rate : 0.003 FPS<br>
Count of elements : 14<br>
Stream size : 381 Bytes (0%)<br>
Title : Forced<br>
Language : French<br>
Default : No<br>
Forced : Yes<br>
<br>
Text #18<br>
ID : 42<br>
Format : UTF-8<br>
Codec ID : S_TEXT/UTF8<br>
Codec ID/Info : UTF-8 Plain Text<br>
Duration : 1 h 52 min<br>
Bit rate : 62 b/s<br>
Frame rate : 0.208 FPS<br>
Count of elements : 1409<br>
Stream size : 51.5 KiB (0%)<br>
Language : French<br>
Default : No<br>
Forced : No<br>
<br>
Text #19<br>
ID : 43<br>
Format : UTF-8<br>
Codec ID : S_TEXT/UTF8<br>
Codec ID/Info : UTF-8 Plain Text<br>
Duration : 1 h 29 min<br>
Bit rate : 0 b/s<br>
Frame rate : 0.003 FPS<br>
Count of elements : 18<br>
Stream size : 511 Bytes (0%)<br>
Title : Forced<br>
Language : Hungarian<br>
Default : No<br>
Forced : Yes<br>
<br>
Text #20<br>
ID : 44<br>
Format : UTF-8<br>
Codec ID : S_TEXT/UTF8<br>
Codec ID/Info : UTF-8 Plain Text<br>
Duration : 1 h 52 min<br>
Bit rate : 73 b/s<br>
Frame rate : 0.233 FPS<br>
Count of elements : 1577<br>
Stream size : 61.1 KiB (0%)<br>
Language : Hungarian<br>
Default : No<br>
Forced : No<br>
<br>
Text #21<br>
ID : 45<br>
Format : UTF-8<br>
Codec ID : S_TEXT/UTF8<br>
Codec ID/Info : UTF-8 Plain Text<br>
Duration : 1 h 53 min<br>
Bit rate : 73 b/s<br>
Frame rate : 0.222 FPS<br>
Count of elements : 1509<br>
Stream size : 60.8 KiB (0%)<br>
Language : Icelandic<br>
Default : No<br>
Forced : No<br>
<br>
Text #22<br>
ID : 46<br>
Format : UTF-8<br>
Codec ID : S_TEXT/UTF8<br>
Codec ID/Info : UTF-8 Plain Text<br>
Duration : 16 min 50 s<br>
Bit rate : 0 b/s<br>
Frame rate : 0.003 FPS<br>
Count of elements : 3<br>
Stream size : 89.0 Bytes (0%)<br>
Title : Forced<br>
Language : Italian<br>
Default : No<br>
Forced : Yes<br>
<br>
Text #23<br>
ID : 47<br>
Format : UTF-8<br>
Codec ID : S_TEXT/UTF8<br>
Codec ID/Info : UTF-8 Plain Text<br>
Duration : 1 h 52 min<br>
Bit rate : 60 b/s<br>
Frame rate : 0.227 FPS<br>
Count of elements : 1536<br>
Stream size : 49.9 KiB (0%)<br>
Language : Italian<br>
Default : No<br>
Forced : No<br>
<br>
Text #24<br>
ID : 48<br>
Format : UTF-8<br>
Codec ID : S_TEXT/UTF8<br>
Codec ID/Info : UTF-8 Plain Text<br>
Duration : 1 h 50 min<br>
Bit rate : 23 b/s<br>
Frame rate : 0.080 FPS<br>
Count of elements : 533<br>
Stream size : 19.3 KiB (0%)<br>
Title : Forced<br>
Language : Japanese<br>
Default : No<br>
Forced : Yes<br>
<br>
Text #25<br>
ID : 49<br>
Format : UTF-8<br>
Codec ID : S_TEXT/UTF8<br>
Codec ID/Info : UTF-8 Plain Text<br>
Duration : 1 h 53 min<br>
Bit rate : 51 b/s<br>
Frame rate : 0.214 FPS<br>
Count of elements : 1454<br>
Stream size : 42.5 KiB (0%)<br>
Language : Japanese<br>
Default : No<br>
Forced : No<br>
<br>
Text #26<br>
ID : 50<br>
Format : UTF-8<br>
Codec ID : S_TEXT/UTF8<br>
Codec ID/Info : UTF-8 Plain Text<br>
Duration : 1 h 53 min<br>
Bit rate : 57 b/s<br>
Frame rate : 0.225 FPS<br>
Count of elements : 1523<br>
Stream size : 47.5 KiB (0%)<br>
Language : Korean<br>
Default : No<br>
Forced : No<br>
<br>
Text #27<br>
ID : 51<br>
Format : UTF-8<br>
Codec ID : S_TEXT/UTF8<br>
Codec ID/Info : UTF-8 Plain Text<br>
Duration : 1 h 55 min<br>
Bit rate : 55 b/s<br>
Frame rate : 0.182 FPS<br>
Count of elements : 1258<br>
Stream size : 47.2 KiB (0%)<br>
Language : Dutch<br>
Default : No<br>
Forced : No<br>
<br>
Text #28<br>
ID : 52<br>
Format : UTF-8<br>
Codec ID : S_TEXT/UTF8<br>
Codec ID/Info : UTF-8 Plain Text<br>
Duration : 1 h 15 min<br>
Bit rate : 0 b/s<br>
Frame rate : 0.001 FPS<br>
Count of elements : 5<br>
Stream size : 142 Bytes (0%)<br>
Title : Forced<br>
Language : Dutch<br>
Default : No<br>
Forced : Yes<br>
<br>
Text #29<br>
ID : 53<br>
Format : UTF-8<br>
Codec ID : S_TEXT/UTF8<br>
Codec ID/Info : UTF-8 Plain Text<br>
Duration : 1 h 27 min<br>
Bit rate : 0 b/s<br>
Frame rate : 0.003 FPS<br>
Count of elements : 14<br>
Stream size : 368 Bytes (0%)<br>
Title : Forced<br>
Language : Norwegian<br>
Default : No<br>
Forced : Yes<br>
<br>
Text #30<br>
ID : 54<br>
Format : UTF-8<br>
Codec ID : S_TEXT/UTF8<br>
Codec ID/Info : UTF-8 Plain Text<br>
Duration : 1 h 52 min<br>
Bit rate : 63 b/s<br>
Frame rate : 0.232 FPS<br>
Count of elements : 1566<br>
Stream size : 52.2 KiB (0%)<br>
Language : Norwegian<br>
Default : No<br>
Forced : No<br>
<br>
Text #31<br>
ID : 55<br>
Format : UTF-8<br>
Codec ID : S_TEXT/UTF8<br>
Codec ID/Info : UTF-8 Plain Text<br>
Duration : 1 h 45 min<br>
Bit rate : 0 b/s<br>
Frame rate : 0.003 FPS<br>
Count of elements : 18<br>
Stream size : 459 Bytes (0%)<br>
Title : Forced<br>
Language : Polish<br>
Default : No<br>
Forced : Yes<br>
<br>
Text #32<br>
ID : 56<br>
Format : UTF-8<br>
Codec ID : S_TEXT/UTF8<br>
Codec ID/Info : UTF-8 Plain Text<br>
Duration : 1 h 52 min<br>
Bit rate : 67 b/s<br>
Frame rate : 0.233 FPS<br>
Count of elements : 1577<br>
Stream size : 56.2 KiB (0%)<br>
Language : Polish<br>
Default : No<br>
Forced : No<br>
<br>
Text #33<br>
ID : 57<br>
Format : UTF-8<br>
Codec ID : S_TEXT/UTF8<br>
Codec ID/Info : UTF-8 Plain Text<br>
Duration : 1 h 52 min<br>
Bit rate : 73 b/s<br>
Frame rate : 0.233 FPS<br>
Count of elements : 1579<br>
Stream size : 60.5 KiB (0%)<br>
Title : Brazilian<br>
Language : Portuguese<br>
Default : No<br>
Forced : No<br>
<br>
Text #34<br>
ID : 58<br>
Format : UTF-8<br>
Codec ID : S_TEXT/UTF8<br>
Codec ID/Info : UTF-8 Plain Text<br>
Duration : 1 h 9 min<br>
Bit rate : 0 b/s<br>
Frame rate : 0.002 FPS<br>
Count of elements : 7<br>
Stream size : 165 Bytes (0%)<br>
Title : Brazilian (Forced)<br>
Language : Portuguese<br>
Default : No<br>
Forced : Yes<br>
<br>
Text #35<br>
ID : 59<br>
Format : UTF-8<br>
Codec ID : S_TEXT/UTF8<br>
Codec ID/Info : UTF-8 Plain Text<br>
Duration : 1 h 53 min<br>
Bit rate : 68 b/s<br>
Frame rate : 0.228 FPS<br>
Count of elements : 1559<br>
Stream size : 56.9 KiB (0%)<br>
Title : European<br>
Language : Portuguese<br>
Default : No<br>
Forced : No<br>
<br>
Text #36<br>
ID : 60<br>
Format : UTF-8<br>
Codec ID : S_TEXT/UTF8<br>
Codec ID/Info : UTF-8 Plain Text<br>
Duration : 1 h 52 min<br>
Bit rate : 72 b/s<br>
Frame rate : 0.232 FPS<br>
Count of elements : 1576<br>
Stream size : 60.2 KiB (0%)<br>
Language : Romanian<br>
Default : No<br>
Forced : No<br>
<br>
Text #37<br>
ID : 61<br>
Format : UTF-8<br>
Codec ID : S_TEXT/UTF8<br>
Codec ID/Info : UTF-8 Plain Text<br>
Duration : 1 h 29 min<br>
Bit rate : 0 b/s<br>
Frame rate : 0.002 FPS<br>
Count of elements : 12<br>
Stream size : 308 Bytes (0%)<br>
Title : Forced<br>
Language : Slovak<br>
Default : No<br>
Forced : Yes<br>
<br>
Text #38<br>
ID : 62<br>
Format : UTF-8<br>
Codec ID : S_TEXT/UTF8<br>
Codec ID/Info : UTF-8 Plain Text<br>
Duration : 1 h 52 min<br>
Bit rate : 72 b/s<br>
Frame rate : 0.232 FPS<br>
Count of elements : 1570<br>
Stream size : 59.8 KiB (0%)<br>
Language : Slovak<br>
Default : No<br>
Forced : No<br>
<br>
Text #39<br>
ID : 63<br>
Format : UTF-8<br>
Codec ID : S_TEXT/UTF8<br>
Codec ID/Info : UTF-8 Plain Text<br>
Duration : 1 h 16 min<br>
Bit rate : 0 b/s<br>
Frame rate : 0.002 FPS<br>
Count of elements : 10<br>
Stream size : 187 Bytes (0%)<br>
Title : Forced<br>
Language : Swedish<br>
Default : No<br>
Forced : Yes<br>
<br>
Text #40<br>
ID : 64<br>
Format : UTF-8<br>
Codec ID : S_TEXT/UTF8<br>
Codec ID/Info : UTF-8 Plain Text<br>
Duration : 1 h 55 min<br>
Bit rate : 53 b/s<br>
Frame rate : 0.172 FPS<br>
Count of elements : 1195<br>
Stream size : 44.8 KiB (0%)<br>
Language : Swedish<br>
Default : No<br>
Forced : No<br>
<br>
Text #41<br>
ID : 65<br>
Format : UTF-8<br>
Codec ID : S_TEXT/UTF8<br>
Codec ID/Info : UTF-8 Plain Text<br>
Duration : 1 h 29 min<br>
Bit rate : 0 b/s<br>
Frame rate : 0.003 FPS<br>
Count of elements : 16<br>
Stream size : 478 Bytes (0%)<br>
Title : Forced<br>
Language : Turkish<br>
Default : No<br>
Forced : Yes<br>
<br>
Text #42<br>
ID : 66<br>
Format : UTF-8<br>
Codec ID : S_TEXT/UTF8<br>
Codec ID/Info : UTF-8 Plain Text<br>
Duration : 1 h 52 min<br>
Bit rate : 75 b/s<br>
Frame rate : 0.233 FPS<br>
Count of elements : 1575<br>
Stream size : 62.5 KiB (0%)<br>
Language : Turkish<br>
Default : No<br>
Forced : No<br>
<br>
Text #43<br>
ID : 67<br>
Format : UTF-8<br>
Codec ID : S_TEXT/UTF8<br>
Codec ID/Info : UTF-8 Plain Text<br>
Duration : 1 h 53 min<br>
Bit rate : 57 b/s<br>
Frame rate : 0.227 FPS<br>
Count of elements : 1537<br>
Stream size : 47.7 KiB (0%)<br>
Title : Traditional, Hong Kong<br>
Language : Chinese<br>
Default : No<br>
Forced : No<br>
<br>
Text #44<br>
ID : 68<br>
Format : UTF-8<br>
Codec ID : S_TEXT/UTF8<br>
Codec ID/Info : UTF-8 Plain Text<br>
Duration : 1 h 55 min<br>
Bit rate : 53 b/s<br>
Frame rate : 0.223 FPS<br>
Count of elements : 1550<br>
Stream size : 45.1 KiB (0%)<br>
Title : Simplified<br>
Language : Chinese<br>
Default : No<br>
Forced : No<br>
<br>
Text #45<br>
ID : 69<br>
Format : UTF-8<br>
Codec ID : S_TEXT/UTF8<br>
Codec ID/Info : UTF-8 Plain Text<br>
Duration : 1 h 53 min<br>
Bit rate : 56 b/s<br>
Frame rate : 0.225 FPS<br>
Count of elements : 1527<br>
Stream size : 47.0 KiB (0%)<br>
Title : Traditional<br>
Language : Chinese<br>
Default : No<br>
Forced : No<br>
<br>
Menu<br>
00:13:48.287 : en:Scene 1<br>
00:29:12.711 : en:Scene 2<br>
00:36:45.122 : en:Scene 3<br>
00:45:48.707 : en:Scene 4<br>
00:53:16.196 : en:Scene 5<br>
01:03:52.207 : en:Scene 6<br>
01:14:42.191 : en:Scene 7<br>
01:29:55.395 : en:Scene 8<br>
01:45:54.605 : en:Scene 9<br>
01:54:27.000 : en:Credits</div>
</div><br>
<b>Screenshots</b><br>
<img src="https://i.imgur.com/jbyjvfg.png" class="bbCodeImage LbImage" alt="[​IMG]" data-url="https://i.imgur.com/jbyjvfg.png" style=""><br>
<br>
<b>Download</b><br>
<div class="bbCodeBlock bbCodeVfcHH HiddenContent">
<div class="attribution type">Hidden Content:</div>
<blockquote>You must reply before you can see the hidden data contained here.</blockquote>
</div></div>
<div class="messageTextEndMarker">&nbsp;</div>
</blockquote>
</article>]]></description>
                <author><![CDATA[Samuel]]></author>
                </item>

                </channel></rss>